Genre:Drama | Mystery | Thriller 
Language:English
IMDb:http://www.imdb.com/title/tt1401152/ 
Source:TS.ELEKTRI4KA/IMAGINE.Thx.
Subtitles:Romana/English


Format : MPEG-4
Format profile : Base Media
Codec ID : isom
File size : 887 MiB
Duration : 1h 47mn
Overall bit rate : 1 150 Kbps
Movie name : Unknown.2011.TS.x264.Feel-Free


Video
Format settings, CABAC : Yes
Format settings, ReFrames : 4 frames
Format settings, GOP : M=4, N=32
Codec ID : avc1
Codec ID/Info : Advanced Video Coding
Duration : 1h 47mn
Bit rate mode : Variable
Bit rate : 989 Kbps
Width : 720 pixels
Height : 288 pixels
Display aspect ratio : 2.500
Frame rate mode : Constant
Frame rate : 25.000 fps
Color space : YUV
Chroma subsampling : 4:2:0
Bit depth : 8 bits
Scan type : Progressive
Bits/(Pixel*Frame) : 0.191
Stream size : 766 MiB (86%)
Writing library : x264

Audio
ID : 2
Format : AAC
Format/Info : Advanced Audio Codec
Format version : Version 4
Format profile : LC
Codec ID : 40
Duration : 1h 47mn
Bit rate mode : Variable
Bit rate : 151 Kbps
Channel(s) : 2 channels
Channel positions : Front: L R
Sampling rate : 48.0 KHz
Stream size : 116 MiB (13%)





Plot:
A man awakens from a coma, only to discover that someone has taken on his identity and that no one, (not even his wife), believes him. With the help of a young woman, he sets out to prove who he is







================================== 
http://thepiratebay.org/user/hiest
==================================